<?xml version="1.0" encoding="utf-8"?>
<!-- Generator: Adobe Illustrator 24.3.0, SVG Export Plug-In . SVG Version: 6.00 Build 0)  -->
<svg version="1.1" id="Layer_1" xmlns="http://www.w3.org/2000/svg" xmlns:xlink="http://www.w3.org/1999/xlink" x="0px" y="0px"
	 viewBox="0 0 256 256" style="enable-background:new 0 0 256 256;" xml:space="preserve">
<style type="text/css">
	.st0{fill:#CCCCCC;}
	.st1{fill:none;stroke:#000000;stroke-width:10.8733;stroke-linejoin:round;stroke-miterlimit:10;}
</style>
<g id="Layer_1_1_">
	<g>
		<rect class="st0" width="256" height="256"/>
	</g>
</g>
<g id="Layer_2_1_">
	<path class="st1" d="M199.3,192H56.7c-10,0-18.2-8.1-18.2-18.2V82.2c0-10,8.1-18.2,18.2-18.2h142.7c10,0,18.2,8.1,18.2,18.2v91.7
		C217.5,183.9,209.4,192,199.3,192z"/>
	<g>
		<path d="M123.6,146.8c0-1.2,0-2.1,0-2.6c0-3.5,0.5-6.4,1.5-8.9c0.7-1.9,1.9-3.8,3.5-5.7c1.2-1.4,3.3-3.4,6.3-6.1
			c3-2.7,5-4.8,5.9-6.4c0.9-1.6,1.4-3.3,1.4-5.2c0-3.4-1.3-6.4-4-9s-5.9-3.9-9.8-3.9c-3.7,0-6.9,1.2-9.4,3.5s-4.2,6-4.9,11l-9-1.1
			c0.8-6.7,3.2-11.8,7.3-15.3c4-3.5,9.3-5.3,15.9-5.3c7,0,12.6,1.9,16.7,5.7s6.2,8.4,6.2,13.8c0,3.1-0.7,6-2.2,8.6s-4.3,5.8-8.6,9.6
			c-2.9,2.5-4.7,4.4-5.6,5.6s-1.5,2.6-2,4.2s-0.7,4.1-0.7,7.6H123.6z M123.1,164.4v-10h10v10H123.1z"/>
	</g>
</g>
</svg>
